<svg width="107" height="20" viewBox="0 0 107 20" fill="none" xmlns="http://www.w3.org/2000/svg">
<path opacity="0.5" d="M0.190813 19.2417L7.44171 0.542025H10.74L17.9909 19.2417H15.2378L13.3569 14.2533H4.68855L2.86219 19.2417H0.190813ZM5.53358 11.9908H12.5119L10.3312 6.15738C10.2221 5.88479 10.1131 5.6122 10.0041 5.33961C9.91319 5.04885 9.81324 4.75808 9.7042 4.46732C9.59517 4.17656 9.48613 3.89488 9.3771 3.62229C9.28623 3.33153 9.18628 3.04985 9.07725 2.77726H8.94095C8.83192 3.04985 8.72288 3.33153 8.61384 3.62229C8.52298 3.89488 8.42303 4.16747 8.31399 4.44006C8.22313 4.71265 8.12318 4.99433 8.01415 5.28509C7.92328 5.55768 7.82333 5.83027 7.7143 6.10286L5.53358 11.9908ZM20.335 19.2417V0.542025H22.9246V16.9792H32.5198V19.2417H20.335ZM35.4818 19.2417V0.542025H38.0715V16.9792H47.6666V19.2417H35.4818ZM50.6287 19.2417V0.542025H65.0214V2.80452H53.2183V8.55617H63.822V10.8187H53.2183V16.9792H65.185V19.2417H50.6287ZM68.8102 19.2417V0.542025H78.5417C80.468 0.542025 81.9127 1.04177 82.8759 2.04127C83.8572 3.02259 84.3479 4.29468 84.3479 5.85753C84.3479 7.14779 84.0389 8.25632 83.4211 9.18313C82.8214 10.0918 81.9854 10.746 80.9132 11.1458L85.2201 19.2417H82.3307L78.2691 11.5274H71.3998V19.2417H68.8102ZM71.3998 9.2649H78.4054C79.4049 9.2649 80.2045 8.96506 80.8042 8.36536C81.4221 7.76566 81.731 6.9388 81.731 5.88479C81.731 4.92164 81.4493 4.16747 80.886 3.62229C80.3408 3.07711 79.5139 2.80452 78.4054 2.80452H71.3998V9.2649ZM96.9328 19.5688C94.007 19.5688 91.7172 18.7692 90.0635 17.17C88.428 15.5708 87.6102 13.1448 87.6102 9.89186C87.6102 6.63895 88.428 4.2129 90.0635 2.61371C91.7172 1.01451 94.007 0.214918 96.9328 0.214918C99.8586 0.214918 102.148 1.01451 103.802 2.61371C105.456 4.2129 106.283 6.63895 106.283 9.89186C106.283 13.1448 105.456 15.5708 103.802 17.17C102.148 18.7692 99.8586 19.5688 96.9328 19.5688ZM96.9328 17.3608C98.3139 17.3608 99.5042 17.1155 100.504 16.6248C101.503 16.1342 102.266 15.3527 102.793 14.2806C103.339 13.1902 103.611 11.7636 103.611 10.0009V9.89186C103.611 8.09277 103.339 6.64804 102.793 5.55768C102.248 4.46732 101.476 3.67681 100.476 3.18615C99.477 2.67731 98.2957 2.4229 96.9328 2.4229C95.5698 2.4229 94.3886 2.67731 93.3891 3.18615C92.4078 3.67681 91.6445 4.46732 91.0994 5.55768C90.5724 6.64804 90.2998 8.09277 90.2816 9.89186V10.0009C90.2816 11.7636 90.5451 13.1902 91.0721 14.2806C91.6173 15.3527 92.3896 16.1342 93.3891 16.6248C94.3886 17.1155 95.5698 17.3608 96.9328 17.3608Z" fill="#72747C"/>
</svg>
