<svg width="56" height="56" viewBox="0 0 56 56" fill="none" xmlns="http://www.w3.org/2000/svg">
<path d="M51.25 30.1651C52.9167 29.2028 52.9167 26.7972 51.25 25.8349L18.25 6.78238C16.5833 5.82013 14.5 7.02294 14.5 8.94744L14.5 47.0526C14.5 48.9771 16.5833 50.1799 18.25 49.2176L51.25 30.1651Z" stroke="#CDCAC6"/>
<path d="M38.0072 21.6788C37.9235 21.5951 37.8397 21.5113 37.6723 21.5113H21.767L21.3485 19.3348C21.3485 19.1674 21.0973 19 20.9299 19H18.4185C18.1674 19 18 19.1674 18 19.4185C18 19.6697 18.1674 19.8371 18.4186 19.8371H20.5951L22.6042 30.05C22.8553 31.3894 24.111 32.3939 25.4504 32.3939H35.0772C35.3284 32.3939 35.4958 32.2265 35.4958 31.9753C35.4958 31.7242 35.3284 31.5568 35.0772 31.5568H25.5341C24.8644 31.5568 24.1947 31.2219 23.8598 30.6359L36.0818 28.9617C36.2492 28.9617 36.4166 28.7943 36.4166 28.6269L38.0909 21.9299C38.0909 21.9299 38.0909 21.7625 38.0072 21.6788ZM35.6632 28.2083L23.4412 29.7988L21.9344 22.2647H37.0863L35.6632 28.2083Z" fill="#72747C"/>
<path d="M25.1155 33.231C23.9435 33.231 23.0227 34.1518 23.0227 35.3237C23.0227 36.4957 23.9435 37.4165 25.1155 37.4165C26.2875 37.4165 27.2083 36.4957 27.2083 35.3237C27.2083 34.1518 26.2875 33.231 25.1155 33.231ZM25.1155 36.5794C24.4458 36.5794 23.8598 35.9934 23.8598 35.3237C23.8598 34.6541 24.4458 34.0681 25.1155 34.0681C25.7852 34.0681 26.3712 34.6541 26.3712 35.3237C26.3712 35.9934 25.7852 36.5794 25.1155 36.5794Z" fill="#72747C"/>
<path d="M33.4869 33.231C32.3149 33.231 31.3941 34.1518 31.3941 35.3237C31.3941 36.4957 32.3149 37.4165 33.4869 37.4165C34.6589 37.4165 35.5797 36.4957 35.5797 35.3237C35.5797 34.1518 34.6588 33.231 33.4869 33.231ZM33.4869 36.5794C32.8172 36.5794 32.2312 35.9934 32.2312 35.3237C32.2312 34.6541 32.8172 34.0681 33.4869 34.0681C34.1566 34.0681 34.7426 34.6541 34.7426 35.3237C34.7426 35.9934 34.1566 36.5794 33.4869 36.5794Z" fill="#72747C"/>
</svg>
