<svg width="72" height="56" viewBox="0 0 72 56" fill="none" xmlns="http://www.w3.org/2000/svg">
<path d="M16.7265 55.504C14.9985 55.504 12.7905 54.928 10.1025 53.776C7.4145 52.432 5.1105 49.552 3.1905 45.136C1.4625 40.528 0.598501 35.632 0.598501 30.448C0.598501 25.264 2.2305 20.08 5.4945 14.896C11.4465 5.48798 19.7025 0.591984 30.2625 0.207989L30.8385 2.79999C26.6145 4.33599 23.2545 6.352 20.7585 8.848C18.4545 11.344 17.1105 14.032 16.7265 16.912C16.3425 22.864 18.2625 28.24 22.4865 33.04C27.8625 38.992 29.5905 44.272 27.6705 48.88C25.7505 53.296 22.1025 55.504 16.7265 55.504ZM71.1585 2.79999C65.5905 4.71999 61.7505 7.40799 59.6385 10.864C57.7185 14.128 56.7585 16.624 56.7585 18.352C56.7585 23.728 58.7745 28.624 62.8065 33.04C68.1825 38.992 69.9105 44.272 67.9905 48.88C66.0705 53.296 62.5185 55.504 57.3345 55.504C51.1905 55.504 46.8705 52.624 44.3745 46.864C42.0705 41.104 40.9185 35.632 40.9185 30.448C40.9185 25.264 42.5505 20.08 45.8145 14.896C51.7665 5.48798 60.0225 0.591984 70.5825 0.207989L71.1585 2.79999Z" fill="#EFD8C9" fill-opacity="0.45"/>
</svg>
